<svg width="247" height="100" viewBox="0 0 247 100" fill="none" xmlns="http://www.w3.org/2000/svg">
<g clip-path="url(#clip0_2_63)">
<g opacity="0.9">
<path d="M33.4609 83H31.1172V79.4844C31.1172 78.9147 31.105 78.4264 31.0806 78.0195C31.0643 77.6045 30.9951 77.2505 30.873 76.9575C30.7591 76.6646 30.576 76.4285 30.3237 76.2495C30.0715 76.0705 29.7134 75.9321 29.2495 75.8345C28.7856 75.7368 28.1956 75.6717 27.4795 75.6392C26.7715 75.5985 25.8966 75.5781 24.855 75.5781H14.3203V83H11.9766V64.25H25.2456C26.6779 64.25 27.8823 64.3029 28.8589 64.4087C29.8436 64.5063 30.6533 64.6569 31.2881 64.8604C31.931 65.0638 32.4233 65.3161 32.7651 65.6172C33.1151 65.9183 33.3674 66.2723 33.522 66.6792C33.6847 67.0861 33.7783 67.5418 33.8027 68.0464C33.8353 68.5509 33.8516 69.1084 33.8516 69.7188C33.8516 70.5 33.7946 71.1877 33.6807 71.7817C33.5749 72.3677 33.3918 72.8682 33.1313 73.2832C32.8709 73.6982 32.5251 74.0319 32.0938 74.2842C31.6624 74.5283 31.1213 74.6992 30.4702 74.7969C31.1213 74.8945 31.6421 75.0654 32.0327 75.3096C32.4233 75.5537 32.7244 75.8711 32.936 76.2617C33.1476 76.6523 33.286 77.1162 33.3511 77.6533C33.4243 78.1904 33.4609 78.8008 33.4609 79.4844V83ZM14.3203 73.625H25.2456C26.2873 73.625 27.1621 73.6087 27.8701 73.5762C28.5863 73.5355 29.1763 73.4663 29.6401 73.3687C30.104 73.271 30.4621 73.1326 30.7144 72.9536C30.9666 72.7746 31.1497 72.5386 31.2637 72.2456C31.3857 71.9526 31.4549 71.6027 31.4712 71.1958C31.4956 70.7808 31.5078 70.2884 31.5078 69.7188C31.5078 69.1898 31.4956 68.734 31.4712 68.3516C31.4549 67.9691 31.3857 67.6476 31.2637 67.3872C31.1497 67.1268 30.9666 66.9193 30.7144 66.7646C30.4621 66.61 30.104 66.492 29.6401 66.4106C29.1763 66.3211 28.5863 66.2642 27.8701 66.2397C27.1621 66.2153 26.2873 66.2031 25.2456 66.2031H14.3203V73.625ZM52.6138 63.8594C54.0461 63.8594 55.2505 63.9489 56.2271 64.1279C57.2118 64.2988 58.0215 64.5633 58.6562 64.9214C59.291 65.2713 59.7793 65.7148 60.1211 66.252C60.4629 66.7891 60.7111 67.4198 60.8657 68.144C61.0285 68.8683 61.1221 69.6862 61.1465 70.5977C61.179 71.5091 61.1953 72.5182 61.1953 73.625C61.1953 74.7318 61.179 75.7409 61.1465 76.6523C61.1221 77.5638 61.0285 78.3817 60.8657 79.106C60.7111 79.8302 60.4629 80.4609 60.1211 80.998C59.7793 81.5352 59.291 81.9827 58.6562 82.3408C58.0215 82.6908 57.2118 82.9512 56.2271 83.1221C55.2505 83.3011 54.0461 83.3906 52.6138 83.3906H45.5581C44.1258 83.3906 42.9173 83.3011 41.9326 83.1221C40.9561 82.9512 40.1504 82.6908 39.5156 82.3408C38.8809 81.9827 38.3885 81.5352 38.0386 80.998C37.6968 80.4609 37.4445 79.8302 37.2817 79.106C37.1271 78.3817 37.0376 77.5638 37.0132 76.6523C36.9888 75.7409 36.9766 74.7318 36.9766 73.625C36.9766 72.5182 36.9888 71.5091 37.0132 70.5977C37.0376 69.6862 37.1271 68.8683 37.2817 68.144C37.4445 67.4198 37.6968 66.7891 38.0386 66.252C38.3885 65.7148 38.8809 65.2713 39.5156 64.9214C40.1504 64.5633 40.9561 64.2988 41.9326 64.1279C42.9173 63.9489 44.1258 63.8594 45.5581 63.8594H52.6138ZM52.6138 81.4375C53.6473 81.4375 54.5181 81.409 55.2261 81.3521C55.9422 81.2869 56.5322 81.1608 56.9961 80.9736C57.46 80.7865 57.818 80.5179 58.0703 80.168C58.3226 79.818 58.5057 79.3542 58.6196 78.7764C58.7336 78.1986 58.7987 77.4906 58.8149 76.6523C58.8394 75.806 58.8516 74.7969 58.8516 73.625C58.8516 72.4531 58.8394 71.4481 58.8149 70.6099C58.7987 69.7635 58.7336 69.0514 58.6196 68.4736C58.5057 67.8958 58.3226 67.432 58.0703 67.082C57.818 66.7321 57.46 66.4635 56.9961 66.2764C56.5404 66.0892 55.9544 65.9671 55.2383 65.9102C54.5303 65.8451 53.6554 65.8125 52.6138 65.8125H45.5581C44.5164 65.8125 43.6375 65.8451 42.9214 65.9102C42.2134 65.9671 41.6274 66.0892 41.1636 66.2764C40.6997 66.4635 40.3416 66.7321 40.0894 67.082C39.8371 67.432 39.654 67.8958 39.54 68.4736C39.4261 69.0514 39.361 69.7635 39.3447 70.6099C39.3285 71.4481 39.3203 72.4531 39.3203 73.625C39.3203 74.7969 39.3285 75.806 39.3447 76.6523C39.3691 77.4906 39.4383 78.1986 39.5522 78.7764C39.6662 79.3542 39.8452 79.818 40.0894 80.168C40.3416 80.5179 40.6997 80.7865 41.1636 80.9736C41.6274 81.1608 42.2134 81.2869 42.9214 81.3521C43.6375 81.409 44.5164 81.4375 45.5581 81.4375H52.6138ZM84.6206 70.1094C84.6206 69.1328 84.5148 68.3597 84.3032 67.79C84.0916 67.2204 83.7417 66.7891 83.2534 66.4961C82.7651 66.2031 82.1222 66.016 81.3247 65.9346C80.5353 65.8532 79.5547 65.8125 78.3828 65.8125H72.9019C71.8602 65.8125 70.9813 65.8451 70.2651 65.9102C69.5571 65.9671 68.9712 66.0892 68.5073 66.2764C68.0435 66.4635 67.6854 66.7321 67.4331 67.082C67.1808 67.432 66.9977 67.8958 66.8838 68.4736C66.7699 69.0514 66.7048 69.7635 66.6885 70.6099C66.6722 71.4481 66.6641 72.4531 66.6641 73.625C66.6641 74.7969 66.6722 75.806 66.6885 76.6523C66.7129 77.4906 66.7821 78.1986 66.896 78.7764C67.0099 79.3542 67.189 79.818 67.4331 80.168C67.6854 80.5179 68.0435 80.7865 68.5073 80.9736C68.9712 81.1608 69.5571 81.2869 70.2651 81.3521C70.9813 81.409 71.8602 81.4375 72.9019 81.4375H78.3828C79.2943 81.4375 80.0796 81.4131 80.7388 81.3643C81.3979 81.3154 81.9595 81.2259 82.4233 81.0957C82.8872 80.9655 83.2616 80.7865 83.5464 80.5586C83.8312 80.3307 84.0509 80.0459 84.2056 79.7041C84.3683 79.3542 84.4782 78.9391 84.5352 78.459C84.5921 77.9707 84.6206 77.401 84.6206 76.75H86.9644C86.9644 77.5312 86.9155 78.2393 86.8179 78.874C86.7202 79.5007 86.5452 80.0622 86.293 80.5586C86.0488 81.0469 85.7192 81.4701 85.3042 81.8281C84.8892 82.1862 84.3643 82.4832 83.7295 82.7192C83.0947 82.9471 82.3379 83.1139 81.459 83.2197C80.5801 83.3337 79.5547 83.3906 78.3828 83.3906H72.9019C71.4696 83.3906 70.2611 83.3011 69.2764 83.1221C68.2998 82.9512 67.4941 82.6908 66.8594 82.3408C66.2246 81.9827 65.7323 81.5352 65.3823 80.998C65.0405 80.4609 64.7882 79.8302 64.6255 79.106C64.4709 78.3817 64.3813 77.5638 64.3569 76.6523C64.3325 75.7409 64.3203 74.7318 64.3203 73.625C64.3203 72.5182 64.3325 71.5091 64.3569 70.5977C64.3813 69.6862 64.4709 68.8683 64.6255 68.144C64.7882 67.4198 65.0405 66.7891 65.3823 66.252C65.7323 65.7148 66.2246 65.2713 66.8594 64.9214C67.4941 64.5633 68.2998 64.2988 69.2764 64.1279C70.2611 63.9489 71.4696 63.8594 72.9019 63.8594H78.3828C79.5547 63.8594 80.5801 63.9163 81.459 64.0303C82.3379 64.1361 83.0947 64.3029 83.7295 64.5308C84.3643 64.7505 84.8892 65.0312 85.3042 65.373C85.7192 65.7148 86.0488 66.1177 86.293 66.5815C86.5452 67.0454 86.7202 67.5703 86.8179 68.1562C86.9155 68.7422 86.9644 69.3932 86.9644 70.1094H84.6206ZM108.461 64.25H111.977L98.6953 73.4297L112.367 83H108.852L96.3516 74.4062H93.2266V83H90.8828V64.25H93.2266V72.4531H96.3516L108.461 64.25ZM115.492 83V64.25H134.242V66.2031H117.836V72.4531H133.461V74.4062H117.836V81.0469H134.242V83H115.492ZM157.68 64.25V66.2031H148.305V83H145.961V66.2031H136.586V64.25H157.68Z" fill="white"/>
<path d="M167.055 83V64.25H169.398V81.0469H184.242V83H167.055ZM205.727 78.7031H190.883L188.539 83H185.805L196.742 64.25H199.867L210.805 83H208.07L205.727 78.7031ZM204.555 76.75L198.305 65.8125L192.055 76.75H204.555ZM213.93 83V64.25H229.567C230.739 64.25 231.683 64.3477 232.399 64.543C233.115 64.7301 233.664 65.0109 234.047 65.3853C234.438 65.7515 234.698 66.2113 234.828 66.7646C234.958 67.318 235.023 67.9528 235.023 68.6689C235.023 69.1898 234.979 69.6496 234.889 70.0483C234.8 70.4471 234.682 70.793 234.535 71.0859C234.389 71.3789 234.222 71.6271 234.035 71.8306C233.847 72.0259 233.656 72.1886 233.461 72.3188C233.005 72.6281 232.484 72.8031 231.898 72.8438C232.631 72.8844 233.282 73.0635 233.852 73.3809C234.096 73.5192 234.332 73.6942 234.56 73.9058C234.796 74.1092 235.003 74.3656 235.182 74.6748C235.369 74.9759 235.52 75.334 235.634 75.749C235.748 76.1559 235.805 76.6279 235.805 77.165C235.805 77.8161 235.772 78.4142 235.707 78.9595C235.65 79.4966 235.528 79.9808 235.341 80.4121C235.154 80.8434 234.885 81.2218 234.535 81.5474C234.185 81.8729 233.717 82.1455 233.131 82.3652C232.554 82.5768 231.841 82.7355 230.995 82.8413C230.157 82.9471 229.152 83 227.98 83H213.93ZM227.199 81.0469C228.11 81.0469 228.9 81.0347 229.567 81.0103C230.234 80.9777 230.8 80.9167 231.264 80.8271C231.728 80.7295 232.102 80.5952 232.387 80.4243C232.672 80.2453 232.891 80.0133 233.046 79.7285C233.209 79.4355 233.319 79.0815 233.375 78.6665C233.432 78.2515 233.461 77.751 233.461 77.165C233.461 76.7093 233.432 76.3146 233.375 75.981C233.319 75.6392 233.209 75.3543 233.046 75.1265C232.891 74.8905 232.672 74.7033 232.387 74.5649C232.102 74.4185 231.728 74.3045 231.264 74.2231C230.8 74.1418 230.234 74.0889 229.567 74.0645C228.9 74.0319 228.11 74.0156 227.199 74.0156H216.273V81.0469H227.199ZM227.199 72.0625C227.996 72.0625 228.684 72.0462 229.262 72.0137C229.84 71.9811 230.332 71.9201 230.739 71.8306C231.146 71.741 231.475 71.619 231.728 71.4644C231.98 71.3016 232.175 71.0941 232.313 70.8418C232.46 70.5895 232.558 70.2884 232.606 69.9385C232.655 69.5804 232.68 69.1572 232.68 68.6689C232.68 68.1481 232.623 67.7249 232.509 67.3994C232.395 67.0739 232.191 66.8257 231.898 66.6548C231.605 66.4757 231.207 66.3577 230.702 66.3008C230.206 66.2357 229.567 66.2031 228.786 66.2031H216.273V72.0625H227.199Z" fill="#00D293"/>
</g>
<g filter="url(#filter0_d_2_63)">
<path d="M112.02 53V11.5455H126.027C129.266 11.5455 131.924 12.0987 134.002 13.2053C136.08 14.2983 137.619 15.8029 138.617 17.7191C139.616 19.6353 140.115 21.8146 140.115 24.2571C140.115 26.6996 139.616 28.8654 138.617 30.7546C137.619 32.6438 136.087 34.1282 134.022 35.2077C131.958 36.2738 129.32 36.8068 126.108 36.8068H114.773V32.2727H125.946C128.159 32.2727 129.94 31.9489 131.29 31.3011C132.653 30.6534 133.638 29.7358 134.245 28.5483C134.866 27.3473 135.176 25.9169 135.176 24.2571C135.176 22.5973 134.866 21.1467 134.245 19.9052C133.624 18.6637 132.632 17.7056 131.27 17.0309C129.907 16.3427 128.105 15.9986 125.865 15.9986H117.04V53H112.02ZM131.533 34.3778L141.734 53H135.905L125.865 34.3778H131.533Z" fill="white"/>
<path d="M107.02 53V11.5455H112.04V48.5469H131.31V53H107.02Z" fill="#00D293"/>
</g>
</g>
<defs>
<filter id="filter0_d_2_63" x="67.0199" y="-28.4546" width="114.714" height="121.455" filterUnits="userSpaceOnUse" color-interpolation-filters="sRGB">
<feFlood flood-opacity="0" result="BackgroundImageFix"/>
<feColorMatrix in="SourceAlpha" type="matrix" values="0 0 0 0 0 0 0 0 0 0 0 0 0 0 0 0 0 0 127 0" result="hardAlpha"/>
<feOffset/>
<feGaussianBlur stdDeviation="20"/>
<feColorMatrix type="matrix" values="0 0 0 0 0 0 0 0 0 0.823529 0 0 0 0 0.576471 0 0 0 0.25 0"/>
<feBlend mode="normal" in2="BackgroundImageFix" result="effect1_dropShadow_2_63"/>
<feBlend mode="normal" in="SourceGraphic" in2="effect1_dropShadow_2_63" result="shape"/>
</filter>
<clipPath id="clip0_2_63">
<rect width="247" height="100" fill="white"/>
</clipPath>
</defs>
</svg>
